<?xml version="1.0" encoding="utf-8"?>
<!-- Generator: Adobe Illustrator 19.1.0, SVG Export Plug-In . SVG Version: 6.00 Build 0)  -->
<svg version="1.1" id="Layer_1" xmlns="http://www.w3.org/2000/svg" xmlns:xlink="http://www.w3.org/1999/xlink" x="0px" y="0px"
	 viewBox="-223 537 512 512" style="enable-background:new -223 537 512 512;" xml:space="preserve">
<path d="M24.5,1040.5c-12.8,0-21.3-4.3-29.9-12.8l-204.8-204.8l0,0l0,0l0,0l0,0l0,0l0,0l0,0l0,0l0,0c-17.1-17.1-17.1-46.9,0-64
	L-9.7,558.4c17.1-17.1,46.9-17.1,64,0c17.1,17.1,17.1,46.9,0,64L-69.4,746.1h315.7c25.6,0,42.7,21.3,42.7,42.7s-21.3,42.7-42.7,42.7
	H-69.4l128,128c17.1,17.1,17.1,46.9,0,64C50.1,1036.2,37.3,1040.5,24.5,1040.5z"/>
</svg>
