<?xml version="1.0" encoding="utf-8"?>
<!-- Generator: Adobe Illustrator 19.1.0, SVG Export Plug-In . SVG Version: 6.00 Build 0)  -->
<svg version="1.1" id="Layer_1" xmlns="http://www.w3.org/2000/svg" xmlns:xlink="http://www.w3.org/1999/xlink" x="0px" y="0px"
	 viewBox="-473 287 512 512" style="enable-background:new -473 287 512 512;" xml:space="preserve">
<path d="M-214.9,799c-4.3,0-8.5,0-8.5,0c-8.5,0-12.8-4.3-17.1-8.5l0,0l0,0l0,0l0,0l0,0l0,0c0,0,0,0-4.3,0l0,0l0,0l0,0l0,0l0,0
	l-204.8-204.8c-17.1-17.1-17.1-46.9,0-64c17.1-17.1,46.9-17.1,64,0l128,128v-320c0-25.6,21.3-42.7,42.7-42.7
	c25.6,0,42.7,21.3,42.7,42.7v315.7l123.7-123.7c17.1-17.1,46.9-17.1,64,0c17.1,17.1,17.1,46.9,0,64L-185,786.2l0,0l0,0l0,0l0,0l0,0
	C-193.5,794.7-206.3,799-214.9,799z"/>
</svg>
