<?xml version="1.0" encoding="utf-8"?>
<!-- Generator: Adobe Illustrator 19.1.0, SVG Export Plug-In . SVG Version: 6.00 Build 0)  -->
<svg version="1.1" id="Layer_1" xmlns="http://www.w3.org/2000/svg" xmlns:xlink="http://www.w3.org/1999/xlink" x="0px" y="0px"
	 viewBox="-473 287 512 512" style="enable-background:new -473 287 512 512;" xml:space="preserve">
<path d="M-212.7,788.3c-12.8,0-21.3-4.3-29.9-12.8c-17.1-17.1-17.1-46.9,0-64l128-128h-315.7c-25.6,0-42.7-21.3-42.7-42.7
	c0-25.6,21.3-42.7,42.7-42.7h315.7l-123.7-123.7c-17.1-17.1-17.1-46.9,0-64s46.9-17.1,64,0L26.2,511c8.5,8.5,12.8,21.3,12.8,29.9
	c0,12.8-4.3,21.3-12.8,29.9l-204.8,204.8C-191.4,784.1-199.9,788.3-212.7,788.3z"/>
</svg>
