<?xml version="1.0" encoding="utf-8"?>
<!-- Generator: Adobe Illustrator 19.1.0, SVG Export Plug-In . SVG Version: 6.00 Build 0)  -->
<svg version="1.1" id="Layer_1" xmlns="http://www.w3.org/2000/svg" xmlns:xlink="http://www.w3.org/1999/xlink" x="0px" y="0px"
	 viewBox="-473 287 512 512" style="enable-background:new -473 287 512 512;" xml:space="preserve">
<path d="M28.3,538.7c0,12.8-4.3,21.3-12.8,29.9c-17.1,17.1-46.9,17.1-64,0l-128-128v315.7c0,25.6-21.3,42.7-42.7,42.7
	c-25.6,0-42.7-21.3-42.7-42.7V440.6l-123.7,123.7c-17.1,17.1-46.9,17.1-64,0s-17.1-46.9,0-64L-249,299.8
	c8.5-8.5,21.3-12.8,29.9-12.8c12.8,0,21.3,4.3,29.9,12.8L15.5,504.6C24.1,517.4,28.3,525.9,28.3,538.7z"/>
</svg>
