<?xml version="1.0" encoding="utf-8"?>
<!-- Generator: Adobe Illustrator 19.1.0, SVG Export Plug-In . SVG Version: 6.00 Build 0)  -->
<svg version="1.1" id="Layer_1" xmlns="http://www.w3.org/2000/svg" xmlns:xlink="http://www.w3.org/1999/xlink" x="0px" y="0px"
	 viewBox="-383 3745 512 512" style="enable-background:new -383 3745 512 512;" xml:space="preserve">
<style type="text/css">
	.st0{fill:none;}
</style>
<g id="cake">
	<g>
		<line class="st0" x1="-350" y1="4243.4" x2="96" y2="4243.4"/>
		<path d="M96,4257h-446c-7.5,0-13.6-6.1-13.6-13.6s6.1-13.6,13.6-13.6H96c7.5,0,13.6,6.1,13.6,13.6
			C109.5,4250.9,103.5,4257,96,4257z"/>
	</g>
	<path d="M72.3,4257h-398.4v-209.8c-0.5-5.4-1.6-29.2,14-47c11.2-12.8,27.8-19.3,49.4-19.3H10.7c4.9-0.3,26.8-0.9,43.6,14.4
		c12,10.9,18,26.6,18,46.7V4257z M-298.9,4229.8H45.2V4042c0-12.1-3.1-21.1-9.1-26.6c-9.2-8.4-23.4-7.4-23.5-7.4l-0.6,0.1h-274.5
		c-13.3,0-23.1,3.4-28.9,10.1c-9.1,10.3-7.4,26.5-7.4,26.7l0.1,0.9v184H-298.9z"/>
	<path d="M-127,4003.1c-7.5,0-13.6-6.1-13.6-13.6v-87.4c0-7.5,6.1-13.6,13.6-13.6s13.6,6.1,13.6,13.6v87.4
		C-113.4,3997-119.5,4003.1-127,4003.1z"/>
	<path d="M-263.7,4164.5c-1.8,0-3.7-0.1-5.5-0.4c-33.1-4.5-53.1-48.8-55.2-53.9l24.9-10.8c5,11.5,19.8,35.8,33.9,37.7
		c6.6,0.9,14-3.7,21.9-13.6c24.2-30.3,45.4-50.5,70-50.5c0.2,0,0.5,0,0.7,0c20.1,0.3,39.2,14,62,44.5c9.9,13.2,19.4,20.3,26.2,19.5
		c7.8-0.9,15.2-12.3,17.7-18c2.6-7.3,19.5-51.4,52-59.2c20.4-4.9,37.7,6.6,48.6,17.1c13.9,13.4,22.4,21.6,27.3,26.4
		c2.5,2.4,4.1,4,5.1,5c0.5,0.5,0.9,0.9,1.1,1.1c6.3,6.3,5,14.7,0.5,19.3c-3.7,3.9-12.1,7.1-19.7,0c-0.4-0.3-0.8-0.8-1.3-1.2
		l-1.8-1.8l0.1-0.1c-3.9-3.8-12.4-12-30.2-29.2c-8.7-8.4-16.6-11.9-23.4-10.2c-15,3.6-28.6,30-32.8,42.2l-0.3,0.8
		c-1.3,3.2-13.9,31.6-39.5,34.8c-17.5,2.2-34.7-8-51.3-30.2c-16.8-22.4-30.1-33.4-40.7-33.6c-11.7-0.2-26.3,11.9-49,40.3
		C-235.1,4156.5-249,4164.5-263.7,4164.5z M58,4105.8c-3.6,0-7.2,1.4-9.8,4.2c-4,4.1-4.8,10.2-2.6,15.1l17.5-18.3
		C61.5,4106.1,59.7,4105.8,58,4105.8z"/>
	<path d="M-118.6,3903.9c-10.3,0-21.5-2.4-32.6-7.3c-13.5-5.9-18.4-15.9-20-23.3c-2.9-12.6,1.2-28.2,12-46.3
		c6.4-10.7,13.2-19.1,15-21.2c8.4-12.1,9.9-38.6,9.7-47c-0.1-5.9,3.7-11.3,9.3-13.1c5.6-1.9,11.8,0.1,15.3,5
		c0.9,1.2,21.7,30.5,36.6,82.3c4.2,14.7,8.4,42-11.3,59.3C-93.4,3900-105.4,3903.9-118.6,3903.9z M-123.1,3823
		c-0.1,0.1-6.9,8.1-13,18.3c-9.8,16.5-9.1,24.1-8.6,26c0.2,1,0.6,2.7,4.5,4.4c15.1,6.6,30.2,6.6,37.8,0c8.5-7.4,5.6-22.8,3.1-31.4
		c-4.3-14.8-9.1-27.7-13.7-38.3c-2.4,8-5.5,14.6-9.4,20C-122.6,3822.4-122.8,3822.7-123.1,3823L-123.1,3823z"/>
</g>
</svg>
