<?xml version="1.0" encoding="utf-8"?>
<!-- Generator: Adobe Illustrator 19.1.0, SVG Export Plug-In . SVG Version: 6.00 Build 0)  -->
<svg version="1.1" id="Layer_1" xmlns="http://www.w3.org/2000/svg" xmlns:xlink="http://www.w3.org/1999/xlink" x="0px" y="0px"
	 viewBox="-383 3745 512 512" style="enable-background:new -383 3745 512 512;" xml:space="preserve">
<g id="car">
	<path d="M-260.1,4109.5c-23.7,0-43-19.3-43-43c0-23.7,19.3-43,43-43c23.7,0,43,19.3,43,43C-217,4090.2-236.3,4109.5-260.1,4109.5z
		 M-260.1,4045.6c-11.5,0-20.8,9.3-20.8,20.8c0,11.5,9.3,20.8,20.8,20.8c11.5,0,20.8-9.3,20.8-20.8
		C-239.2,4055-248.6,4045.6-260.1,4045.6z"/>
	<path d="M-316.8,4216.4h-20.8c-11.4,0-18.2-4.8-22-8.9c-9.1-9.9-8.2-23.8-8.1-25.3l0-56.1c0-6.1,5-11.1,11.1-11.1s11.1,5,11.1,11.1
		v57c-0.1,2.7,0.3,7.3,2.3,9.4c0.4,0.4,1.6,1.7,5.6,1.7h20.8c6.1,0,11.1,5,11.1,11.1S-310.7,4216.4-316.8,4216.4z"/>
	<path d="M-296,4216.4h-20.8c-6.1,0-11.1-5-11.1-11.1s5-11.1,11.1-11.1h20.8c4,0,5.2-1.3,5.6-1.7c2-2.1,2.4-6.7,2.3-8.6l0-42.9
		c0-6.1,5-11.1,11.1-11.1c6.1,0,11.1,5,11.1,11.1v42.1c0.1,0.6,1,14.5-8.1,24.4C-277.8,4211.5-284.6,4216.4-296,4216.4z"/>
	<path d="M87,4148.8h-428c-12.2,0-18.8-5.1-22.2-9.4c-6.1-7.8-5.3-17.4-4.7-21.3c0.1-52.2,8.1-115.9,11.1-137.9
		c-10.7-6.2-28.2-19.2-26-37.2c3.7-30.2,42.6-28,80.1-25.9c6.1,0.3,10.8,5.6,10.5,11.7c-0.3,6.1-5.7,10.8-11.7,10.5
		c-28.9-1.6-55.8-1.9-56.8,6.5c-0.7,5.3,11.7,14.2,20.5,18.1c4.6,2,7.3,6.8,6.5,11.8c-0.1,0.8-11.9,82.3-11.9,143.7
		c0,0.9-0.1,1.8-0.3,2.7c-0.3,1.2-0.1,3.3,0.3,3.8c0.1,0.2,1.4,0.9,4.7,0.9H87c3.2,0,4.5-0.7,4.7-0.9c0.4-0.5,0.6-2.6,0.2-4
		c-0.2-0.8-0.3-1.7-0.3-2.5c0-61.4-11.8-142.9-11.9-143.7c-0.7-4.9,2-9.8,6.5-11.8c10-4.4,21.1-13.3,20.5-18.1c-1-8.4-28-8-56.8-6.5
		c-6.4,0.3-11.4-4.3-11.7-10.5c-0.3-6.1,4.4-11.4,10.5-11.7c37.5-2.1,76.4-4.3,80.1,25.9c2.2,18.1-15.3,31.1-26,37.2
		c3,22.1,10.9,85.8,11,137.9c0.7,3.9,1.4,13.4-4.7,21.3C105.8,4143.7,99.3,4148.8,87,4148.8z"/>
	<path d="M-0.4,3980.9h-253.1c-1,0-2-0.1-3-0.4c-1.5-0.4-36.1-10.3-50.5-36.1c-6.7-12-8-25.2-3.9-39.2c12.1-42,23.7-72.7,25.5-77.6
		c4-14.9,22.1-42,63.8-42h189.3c41.7,0,59.8,27,63.8,42c1.8,4.8,13.4,35.6,25.5,77.6c4,14.1,2.7,27.3-4,39.2
		c-14.4,25.7-49,35.7-50.5,36.1C1.6,3980.7,0.6,3980.9-0.4,3980.9z M-251.9,3958.7H-2.1c5.6-1.8,27.2-9.8,35.8-25.1
		c3.7-6.7,4.4-13.9,2-22.2c-12.7-43.9-25-76-25.1-76.3c-0.2-0.5-0.3-0.9-0.4-1.4c-0.7-2.5-7.9-25.8-42.4-25.8h-189.3
		c-34.5,0-41.7,23.2-42.4,25.9c-0.5,1.6-12.9,33.8-25.5,77.6c-2.4,8.3-1.7,15.5,2,22.2C-279.1,3948.9-257.5,3956.8-251.9,3958.7z"/>
	<path d="M6.1,4109.5c-23.7,0-43-19.3-43-43c0-23.7,19.3-43,43-43s43,19.3,43,43C49.1,4090.2,29.8,4109.5,6.1,4109.5z M6.1,4045.6
		c-11.5,0-20.8,9.3-20.8,20.8c0,11.5,9.3,20.8,20.8,20.8s20.8-9.3,20.8-20.8C26.9,4055,17.5,4045.6,6.1,4045.6z"/>
	<path d="M83.7,4216.4H62.8c-6.1,0-11.1-5-11.1-11.1s5-11.1,11.1-11.1h20.8c4,0,5.2-1.3,5.6-1.7c2-2.1,2.4-6.7,2.3-8.6l0-57.8
		c0-6.1,5-11.1,11.1-11.1c6.1,0,11.1,5,11.1,11.1v57c0.1,0.6,1,14.5-8.1,24.4C101.9,4211.5,95,4216.4,83.7,4216.4z"/>
	<path d="M62.8,4216.4H42c-11.4,0-18.2-4.8-21.9-8.9c-9.1-9.9-8.2-23.8-8.1-25.3l0-41.2c0-6.1,5-11.1,11.1-11.1s11.1,5,11.1,11.1
		v42.1c-0.2,2.7,0.3,7.3,2.3,9.4c0.4,0.4,1.6,1.7,5.6,1.7h20.8c6.1,0,11.1,5,11.1,11.1S69,4216.4,62.8,4216.4z"/>
	<path d="M-72.7,4066h-108.7c-5.9,0-10.6-4.8-10.6-10.6s4.8-10.6,10.6-10.6h108.7c5.9,0,10.6,4.8,10.6,10.6S-66.8,4066-72.7,4066z"
		/>
	<path d="M-72.7,4107.4h-108.7c-5.9,0-10.6-4.8-10.6-10.6c0-5.9,4.8-10.6,10.6-10.6h108.7c5.9,0,10.6,4.8,10.6,10.6
		C-62,4102.6-66.8,4107.4-72.7,4107.4z"/>
</g>
</svg>
