<?xml version="1.0" encoding="utf-8"?>
<!-- Generator: Adobe Illustrator 19.1.0, SVG Export Plug-In . SVG Version: 6.00 Build 0)  -->
<svg version="1.1" id="Layer_1" xmlns="http://www.w3.org/2000/svg" xmlns:xlink="http://www.w3.org/1999/xlink" x="0px" y="0px"
	 viewBox="-223 25 512 512" enable-background="new -223 25 512 512" xml:space="preserve">
<path d="M139.4,25c11.8,0,23.6,4.5,32.5,13.5c18,18,18,47.1,0,65.1L-8.3,283.8l174.6,174.6c18,18,18,47.1,0,65.1
	c-18,18-47.1,18-65.1,0l-207.1-207.1c-9-9-13.5-20.8-13.5-32.5c0-11.8,4.5-23.6,13.5-32.5c0,0,0,0,0.1-0.1L106.9,38.5
	C115.8,29.5,127.6,25,139.4,25z"/>
</svg>
