<svg xmlns="http://www.w3.org/2000/svg" xmlns:xlink="http://www.w3.org/1999/xlink" version="1.1" x="0px" y="0px" viewBox="0 0 100 100" enable-background="new 0 0 100 100" xml:space="preserve"><path d="M90,25.123l-0.029-0.023C89.683,22.246,87.256,20,84.33,20H15.669c-2.926,0-5.352,2.246-5.64,5.099L10,25.123l0.027,0.021  C10.011,25.317,10,25.492,10,25.669v48.662C10,77.449,12.551,80,15.669,80H84.33c3.119,0,5.67-2.551,5.67-5.669V25.669  c0-0.177-0.011-0.352-0.027-0.525L90,25.123z M73.597,28L50,46.877L26.403,28H73.597z M82,72H18V31.522l29.501,23.601  C48.231,55.708,49.116,56,50,56c0.885,0,1.769-0.292,2.499-0.877L82,31.522V72z"/></svg>