<?xml version="1.0" encoding="utf-8"?>
<!-- Generator: Adobe Illustrator 19.1.0, SVG Export Plug-In . SVG Version: 6.00 Build 0)  -->
<svg version="1.1" id="Layer_1" xmlns="http://www.w3.org/2000/svg" xmlns:xlink="http://www.w3.org/1999/xlink" x="0px" y="0px"
	 viewBox="-473 287 512 512" style="enable-background:new -473 287 512 512;" xml:space="preserve">
<g transform="translate(1 1)">
	<path d="M-218,725.5c-136.5,0-238.9-157.9-243.2-166.4L-474,542l12.8-17.1c4.3-8.5,106.7-166.4,243.2-166.4S20.9,516.4,25.2,524.9
		L38,542l-12.8,17.1C20.9,567.6-81.5,725.5-218,725.5z M-392.9,542c29.9,38.4,98.1,115.2,174.9,115.2c72.5,0,140.8-72.5,174.9-115.2
		c-29.9-38.4-98.1-115.2-174.9-115.2C-290.5,426.8-358.8,499.3-392.9,542z"/>
	<path d="M-218,627.3c-51.2,0-89.6-42.7-89.6-89.6c0-51.2,42.7-89.6,89.6-89.6s89.6,42.7,89.6,89.6
		C-128.4,588.9-166.8,627.3-218,627.3z M-218,512.1c-12.8,0-25.6,12.8-25.6,25.6c0,12.8,12.8,25.6,25.6,25.6s25.6-12.8,25.6-25.6
		C-192.4,524.9-205.2,512.1-218,512.1z"/>
</g>
</svg>
