<?xml version="1.0" encoding="utf-8"?>
<!-- Generator: Adobe Illustrator 19.1.0, SVG Export Plug-In . SVG Version: 6.00 Build 0)  -->
<svg version="1.1" id="Layer_1" xmlns="http://www.w3.org/2000/svg" xmlns:xlink="http://www.w3.org/1999/xlink" x="0px" y="0px"
	 viewBox="-383 3745 512 512" style="enable-background:new -383 3745 512 512;" xml:space="preserve">
<g id="home">
	<path d="M68.4,4233.2h-390.8c-7.9,0-14.3-6.4-14.3-14.3v-278.5c0-7.9,6.4-14.3,14.3-14.3c7.9,0,14.3,6.4,14.3,14.3v264.2H54.2
		v-264.2c0-7.9,6.4-14.3,14.3-14.3s14.3,6.4,14.3,14.3V4219C82.7,4226.9,76.3,4233.2,68.4,4233.2z"/>
	<path d="M114.7,3992.1c-3.1,0-6.3-1-8.9-3.2L-127,3801.3l-232.8,187.6c-6.1,4.9-15.1,4-20-2.2c-4.9-6.1-4-15.1,2.2-20l241.7-194.8
		c5.2-4.2,12.7-4.2,17.9,0l241.7,194.8c6.1,4.9,7.1,13.9,2.1,20C123,3990.3,118.9,3992.1,114.7,3992.1z"/>
	<path d="M-179.3,4121h-79.6c-7.9,0-14.3-6.4-14.3-14.3v-79.6c0-7.9,6.4-14.3,14.3-14.3h79.6c7.9,0,14.3,6.4,14.3,14.3v79.6
		C-165,4114.6-171.4,4121-179.3,4121z M-244.6,4092.5h51.1v-51.1h-51.1V4092.5z"/>
	<path d="M-4,4233.2h-108.7c-7.9,0-14.3-6.4-14.3-14.3v-191.8c0-7.9,6.4-14.3,14.3-14.3H-4c7.9,0,14.3,6.4,14.3,14.3V4219
		C10.2,4226.9,3.8,4233.2-4,4233.2z M-98.5,4204.7h80.2v-163.3h-80.2V4204.7z"/>
</g>
</svg>
