<?xml version="1.0" encoding="iso-8859-1"?>
<!-- Generator: Adobe Illustrator 19.2.0, SVG Export Plug-In . SVG Version: 6.00 Build 0)  -->
<svg version="1.1" id="Layer_1" xmlns="http://www.w3.org/2000/svg" xmlns:xlink="http://www.w3.org/1999/xlink" x="0px" y="0px"
	 viewBox="0 0 800 600" style="enable-background:new 0 0 800 600;" xml:space="preserve">
<g>
	<path d="M169.418,84.609h111.176v27.061h-78.245v28.318h39.018c7.552,0,14.542,0.911,20.977,2.727
		c6.429,1.819,12.023,4.649,16.782,8.494c4.752,3.847,8.494,8.742,11.221,14.684c2.727,5.945,4.089,12.974,4.089,21.083
		c0,8.252-1.329,15.347-3.984,21.289c-2.658,5.948-6.399,10.876-11.224,14.79c-4.825,3.917-10.591,6.784-17.305,8.6
		c-6.711,1.819-14.127,2.727-22.236,2.727h-70.269V84.609z M236.121,207.532c7.973,0,14.194-1.501,18.671-4.51
		c4.474-3.006,6.714-8.497,6.714-16.467c0-3.914-0.63-7.201-1.889-9.859c-1.259-2.655-3.042-4.789-5.349-6.399
		c-2.31-1.604-5.034-2.758-8.182-3.46c-3.145-0.699-6.538-1.05-10.174-1.05h-33.563v41.745H236.121z"/>
</g>
<g>
	<path d="M543.78,275.967c-1.604,3.569-3.384,9.629-5.17,17.654c-5.527,24.249-8.022,44.579-8.56,69.182l13.731,4.637
		c-5.527,17.296-7.489,31.741-7.489,54.383c0,0.896,0.182,3.215,0.539,7.132l-30.137,1.253c-0.176-3.215-0.176-3.215-1.429-14.088
		c-3.209-24.967-3.917-34.774-3.917-54.026c0-25.142,1.604-40.834,7.132-72.04c1.423-8.025,2.137-12.838,2.137-15.513
		c0-0.179,0-0.536,0-0.89L543.78,275.967z M550.203,305.032c7.307,1.783,19.791,2.854,33.339,2.854c3.747,0,6.781,0,12.841-0.182
		c0-10.697,0-10.697,0-23.178c0-4.28-0.357-7.31-0.89-9.986l30.845-0.179c-0.89,5.706-1.423,13.552-1.423,31.205
		c10.873-1.25,21.57-3.387,28.351-5.527l1.066,28.351c-2.319,0.176-2.851,0.357-6.593,1.072c-5.533,1.247-13.555,2.319-22.472,3.384
		c0.182,13.912,0.357,17.478,1.61,37.983c12.302,5.527,18.719,9.093,28.702,16.225c0.896,0.714,1.786,1.247,3.39,2.137
		l-11.23,30.312c-4.105-4.988-11.061-10.516-21.219-16.939c0,0.714,0,1.253,0,1.429c0,15.159-15.516,25.318-38.34,25.318
		c-26.208,0-41.724-12.477-41.724-33.164c0-10.697,4.813-19.972,13.555-26.214c6.774-4.813,16.225-7.307,27.455-7.307
		c3.747,0,6.423,0.357,10.346,1.072c-0.182-4.995-0.182-5.884-0.539-14.269c-0.176-6.06-0.176-8.554-0.357-14.796
		c-4.099,0.176-6.593,0.176-10.159,0.176c-5.352,0-15.692-0.357-30.67-0.89c-2.143-0.176-3.566-0.176-4.105-0.176
		c-0.357,0-1.247,0-2.137,0L550.203,305.032z M598.344,389.906c-4.456-1.604-7.132-2.137-10.879-2.137
		c-8.197,0-13.192,3.209-13.192,8.203c0,4.631,4.637,7.664,11.769,7.664c8.554,0,12.477-3.209,12.477-10.34L598.344,389.906z"/>
</g>
<path d="M395.129,2H75.585C32.789,2,0,38.277,0,81.073V238.75C0,281.546,32.789,318,75.585,318H125v60.625
	c0,12.886,8.012,24.693,20.431,28.132c2.527,0.7,4.959,1.041,7.475,1.041c8.429,0,16.411-3.014,21.89-10.035L237.606,318H292v-37
	h-28.858h-38.53H224v1.812c-6,0.031-7.723,2.063-10.064,5.465l-19.522,27.702l-31.943,40.061c-1.96,2.512-7.471,1.126-7.471-2.06
	v-37.617v-25.696c0-3.6,0-6.508,0-7.442V281h-4.772h-25.38H75.585C51.295,281,31,263.04,31,238.75V81.073
	C31,56.783,51.295,40,75.585,40h319.544C419.419,40,441,56.783,441,81.073V238.75c0,24.29-21.581,42.25-45.871,42.25H391v37h4.129
	C437.926,318,472,281.546,472,238.75V81.073C472,38.277,437.926,2,395.129,2z"/>
<path d="M723.655,194H509v36h214.655C747.944,230,770,248.464,770,272.754v157.677C770,454.72,747.944,473,723.655,473h-40.872
	c0,0,0,0,0,0h-25.38c-4.344,0-6.404,5.003-6.404,9.348v25.696v37.617c0,3.186-3.057,4.571-5.017,2.06L616,508.044v-0.247
	l-22.17-27.839c-2.05-2.979-3.83-4.825-11.83-5.281V473h1.022c-0.001,0-0.002,0-0.003,0h-38.53c0,0,0,0-0.001,0H404.111
	C379.821,473,360,454.72,360,430.431V272.754c0-24.29,19.821-42.754,44.111-42.754H409v-36h-4.889
	C361.315,194,328,229.958,328,272.754v157.677C328,473.228,361.315,510,404.111,510h165.914l62.869,79.604
	c5.479,7.02,13.52,10.364,21.948,10.364c2.517,0,4.016-0.585,6.542-1.285c12.419-3.439,19.616-15.49,19.616-28.376V510h42.655
	C766.452,510,801,473.228,801,430.431V272.754C801,229.958,766.452,194,723.655,194z"/>
</svg>
