<svg id="Layer_1" data-name="Layer 1" xmlns="http://www.w3.org/2000/svg" viewBox="0 0 20 14.84"><defs><style>.cls-1{font-size:5.22px;fill:#40c5ff;font-family:Helvetica Neue;font-weight:700;}.cls-2{font-size:4.44px;fill:#3ec4ff;font-family:Hiragino Kaku Gothic StdN;}.cls-3{fill:#43bcff;}</style></defs><title>small_icon</title><text class="cls-1" transform="translate(3.91 5.75)">Б</text><text class="cls-2" transform="translate(12.16 10.35)">は</text><rect class="cls-3" x="5.64" y="6.95" width="1.71" height="0.84"/><path class="cls-3" d="M9.89,7.79h0V7h0A1.1,1.1,0,0,0,11,5.86V1.93A1.1,1.1,0,0,0,9.89.84h-8a1.1,1.1,0,0,0-1.1,1.1V5.86A1.1,1.1,0,0,0,1.93,7H3.84V7.79H1.93A1.93,1.93,0,0,1,0,5.86V1.93A1.93,1.93,0,0,1,1.93,0h8a1.93,1.93,0,0,1,1.93,1.93V5.86A1.93,1.93,0,0,1,9.89,7.79Z"/><path class="cls-3" d="M5.64,7a0.31,0.31,0,0,0-.26.14l-0.49.69-0.76,1A0.08,0.08,0,0,1,4,8.73V7.15A0.2,0.2,0,0,0,3.79,7H3.15V9.34a0.72,0.72,0,0,0,.51.7l0.19,0A0.69,0.69,0,0,0,4.4,9.8L6.61,7a0,0,0,0,0,0,0h-1Z"/><path class="cls-3" d="M14.57,11.73a0.31,0.31,0,0,1,.26.14l0.48,0.69h0l0.77,1a0.08,0.08,0,0,0,.15-0.05V11.92a0.2,0.2,0,0,1,.2-0.2h0.64v2.38a0.72,0.72,0,0,1-.51.7l-0.19,0a0.69,0.69,0,0,1-.55-0.27L13.6,11.74a0,0,0,0,1,0,0h1Z"/><path class="cls-3" d="M18.07,12.56H16.57V11.73h1.49a1.1,1.1,0,0,0,1.1-1.1V6.7a1.1,1.1,0,0,0-1.1-1.1H12.73V4.77h5.34A1.93,1.93,0,0,1,20,6.7v3.93A1.93,1.93,0,0,1,18.07,12.56Z"/><path class="cls-3" d="M14.61,12.56H10.11a1.93,1.93,0,0,1-1.93-1.93V6.7a1.93,1.93,0,0,1,1.93-1.93h0.16V5.61H10.11A1.1,1.1,0,0,0,9,6.7v3.93a1.1,1.1,0,0,0,1.1,1.1h4.49v0.84Z"/></svg>