<svg width="17" height="16" viewBox="0 0 17 16" xmlns="http://www.w3.org/2000/svg"><path d="M12.07 4.942c-1.824 0-2.64 1.05-3.095 1.785v-1.53H5.54C5.585 6.208 5.54 16 5.54 16h3.435V9.966c0-.323.022-.645.113-.876.248-.645.814-1.313 1.763-1.313 1.244 0 1.74.99 1.74 2.443V16h3.436V9.805c0-3.32-1.695-4.863-3.955-4.863zM.205 16H3.64V5.196H.203V16zM1.944-.013C.77-.013 0 .794 0 1.854 0 2.89.746 3.72 1.9 3.72h.02c1.2 0 1.945-.83 1.945-1.866C3.842.794 3.12-.013 1.945-.013z" fill="#1291D4" fill-rule="evenodd"/></svg>