<?xml version="1.0" encoding="utf-8"?>
<!-- Generator: Adobe Illustrator 19.1.0, SVG Export Plug-In . SVG Version: 6.00 Build 0)  -->
<svg version="1.1" id="Layer_1" xmlns="http://www.w3.org/2000/svg" xmlns:xlink="http://www.w3.org/1999/xlink" x="0px" y="0px"
	 viewBox="-473 287 512 512" style="enable-background:new -473 287 512 512;" xml:space="preserve">
<path d="M-85.8,443.6c-59.2,0-84.6,33.9-97.3,59.2v-46.5h-105.8c0,33.9,0,342.7,0,342.7h105.8V608.6c0-8.5,0-16.9,4.2-29.6
	c4.2-21.2,25.4-42.3,55-42.3c38.1,0,55,33.9,55,76.2v181.9H36.9V600.1C36.9,494.3-18.1,443.6-85.8,443.6L-85.8,443.6z M-462.4,794.8
	h105.8V452h-105.8V794.8L-462.4,794.8z M-411.6,287c-38.1,0-59.2,25.4-59.2,59.2s21.2,59.2,59.2,59.2l0,0
	c38.1,0,59.2-25.4,59.2-59.2S-373.6,287-411.6,287L-411.6,287z"/>
</svg>
