<?xml version="1.0" encoding="utf-8"?>
<!-- Generator: Adobe Illustrator 19.1.0, SVG Export Plug-In . SVG Version: 6.00 Build 0)  -->
<svg version="1.1" id="Layer_1" xmlns="http://www.w3.org/2000/svg" xmlns:xlink="http://www.w3.org/1999/xlink" x="0px" y="0px"
	 viewBox="-473 287 512 512" style="enable-background:new -473 287 512 512;" xml:space="preserve">
<path d="M-89,799h-256c-46.9,0-76.8-29.9-76.8-76.8V543c0-46.9,29.9-76.8,76.8-76.8V415c0-68.3,59.7-128,128-128s128,59.7,128,128
	v51.2c46.9,0,76.8,29.9,76.8,76.8v179.2C-12.2,769.1-42.1,799-89,799z M-345,517.4c-17.1,0-25.6,8.5-25.6,25.6v179.2
	c0,17.1,8.5,25.6,25.6,25.6h256c17.1,0,25.6-8.5,25.6-25.6V543c0-17.1-8.5-25.6-25.6-25.6H-345z M-293.8,466.2h153.6V415
	c0-34.1-34.1-76.8-76.8-76.8s-76.8,42.7-76.8,76.8L-293.8,466.2L-293.8,466.2z"/>
</svg>
