<?xml version="1.0" encoding="utf-8"?>
<!-- Generator: Adobe Illustrator 19.1.0, SVG Export Plug-In . SVG Version: 6.00 Build 0)  -->
<svg version="1.1" id="Layer_1" xmlns="http://www.w3.org/2000/svg" xmlns:xlink="http://www.w3.org/1999/xlink" x="0px" y="0px"
	 viewBox="-383 3745 512 512" style="enable-background:new -383 3745 512 512;" xml:space="preserve">
<path d="M-10.4,4257h-233.2c-42.4,0-72.1-25.4-72.1-72.1v-165.4c0-38.2,21.2-67.8,59.4-72.1c-4.2-4.2-4.2-4.2-8.5-8.5
	c-42.4-59.4-38.2-106,12.7-156.9c67.8-67.8,118.7-29.7,165.4,12.7l46.6,46.6c8.5,8.5,8.5,21.2,0,33.9s-21.2,8.5-33.9,0l-46.6-46.6
	c-42.4-42.4-67.8-42.4-97.5-12.7c-38.2,38.2-33.9,63.6-8.5,97.5c17,25.4,29.7,33.9,33.9,38.2h182.3c42.4,0,72.1,25.4,72.1,72.1
	v165.4C57.5,4231.6,27.8,4257-10.4,4257z M-247.2,3998.3c-17.5,0-21.9,4.3-21.9,21.6v168.7c0,17.3,4.3,21.6,21.9,21.6H-6.9
	c17.5,0,21.9-4.3,21.9-21.6v-168.7c0-17.3-4.3-21.6-21.9-21.6H-247.2z"/>
</svg>
