<svg width="16" height="14" viewBox="0 0 16 14" xmlns="http://www.w3.org/2000/svg"><path d="M1.85 11.951V4.36L7.504 8.36c.152.106.324.16.498.16.173 0 .345-.054.498-.16l5.653-4.002v7.593l-12.303.002zm10.725-8.909L8.002 6.28 3.428 3.04l9.147.002zm3.413-.64c-.003-.042-.003-.083-.01-.124-.123-.728-.7-1.283-1.392-1.283H1.418c-.693 0-1.27.555-1.39 1.282-.01.042-.01.083-.013.127-.005.052-.014.104-.014.16v9.867C0 13.296.637 14 1.42 14h13.168c.78 0 1.417-.704 1.417-1.57V2.56c0-.054-.01-.106-.015-.16v.002z" fill="#1291D4" fill-rule="evenodd"/></svg>