<?xml version="1.0" encoding="utf-8"?>
<!-- Generator: Adobe Illustrator 19.1.0, SVG Export Plug-In . SVG Version: 6.00 Build 0)  -->
<svg version="1.1" id="Layer_1" xmlns="http://www.w3.org/2000/svg" xmlns:xlink="http://www.w3.org/1999/xlink" x="0px" y="0px"
	 viewBox="-223 537 512 512" enable-background="new -223 537 512 512" xml:space="preserve">
<path d="M-167.1,932.8V687.7l185,129.1c4.3,4.3,8.6,8.6,17.2,8.6c4.3,0,8.6-4.3,17.2-8.6l185-129.1v245.2H-167.1L-167.1,932.8z
	 M181.4,644.7L30.8,748l-150.6-103.3H181.4L181.4,644.7z M289,623.1L289,623.1c-4.3-25.8-21.5-43-43-43h-426c-21.5,0-43,21.5-43,43
	v4.3c0,4.3,0,4.3,0,8.6v318.4c0,30.1,21.5,51.6,43,51.6h426c25.8,0,43-21.5,43-51.6V636.1C289,627.5,289,627.5,289,623.1L289,623.1
	L289,623.1z"/>
</svg>
