<?xml version="1.0" encoding="utf-8"?>
<!-- Generator: Adobe Illustrator 19.1.0, SVG Export Plug-In . SVG Version: 6.00 Build 0)  -->
<svg version="1.1" id="Layer_1" xmlns="http://www.w3.org/2000/svg" xmlns:xlink="http://www.w3.org/1999/xlink" x="0px" y="0px"
	 viewBox="-223 537 512 512" enable-background="new -223 537 512 512" xml:space="preserve">
<g>
	<path d="M-11.6,962.1c-9.6,0-19.2-3.7-26.6-11c-14.7-14.7-14.7-38.5,0-53.2L224.8,635c14.7-14.7,38.5-14.7,53.2,0
		c14.7,14.7,14.7,38.5,0,53.2L15,951C7.7,958.4-2,962.1-11.6,962.1z"/>
	<path d="M-11.6,962.1c-9.6,0-19.2-3.7-26.6-11l-173.8-173.8c-14.7-14.7-14.7-38.5,0-53.2c14.7-14.7,38.5-14.7,53.2,0L15,897.9
		c14.7,14.7,14.7,38.5,0,53.2C7.7,958.4-2,962.1-11.6,962.1z"/>
</g>
</svg>
