<svg width="16" height="13" viewBox="0 0 16 13" xmlns="http://www.w3.org/2000/svg"><path d="M15.995 1.603c-.588.26-1.22.435-1.884.514.68-.404 1.2-1.044 1.444-1.806-.635.375-1.337.647-2.085.793-.6-.634-1.452-1.03-2.396-1.03-1.813 0-3.28 1.46-3.28 3.263 0 .256.028.505.084.744C5.15 3.944 2.732 2.645 1.114.67.83 1.152.67 1.713.67 2.31c0 1.133.578 2.132 1.46 2.717-.538-.017-1.044-.164-1.487-.408v.04c0 1.58 1.13 2.9 2.631 3.2-.275.074-.565.114-.864.114-.212 0-.417-.02-.618-.058.42 1.296 1.63 2.24 3.067 2.266-1.125.876-2.54 1.398-4.078 1.398-.265 0-.526-.016-.782-.046C1.452 12.46 3.178 13 5.03 13c6.036 0 9.337-4.973 9.337-9.286 0-.14-.003-.282-.01-.422.643-.46 1.2-1.035 1.64-1.69h-.002z" fill="#1291D4" fill-rule="evenodd"/></svg>