<?xml version="1.0" encoding="utf-8"?>
<!-- Generator: Adobe Illustrator 19.1.0, SVG Export Plug-In . SVG Version: 6.00 Build 0)  -->
<svg version="1.1" id="Layer_1" xmlns="http://www.w3.org/2000/svg" xmlns:xlink="http://www.w3.org/1999/xlink" x="0px" y="0px"
	 viewBox="-473 287 512 512" style="enable-background:new -473 287 512 512;" xml:space="preserve">
<path d="M39,383.5c-16.8,8.4-37.8,12.6-58.8,16.8c21-12.6,37.8-29.4,42-54.6c-16.8,12.6-42,16.8-67.1,25.2
	c-16.8-16.8-46.2-29.4-75.5-29.4c-54.6,0-104.9,46.2-104.9,104.9c0,8.4,0,16.8,4.2,21c-83.9-4.2-159.5-42-214-104.9
	c-8.4,16.8-12.6,29.4-12.6,50.4c0,33.6,16.8,67.1,46.2,83.9c-16.8,0-29.4-4.2-46.2-12.6l0,0c0,50.4,33.6,92.3,79.7,100.7
	c-8.4,4.2-16.8,4.2-29.4,4.2c-4.2,0-12.6,0-16.8-4.2c12.6,42,50.4,67.1,96.5,71.3c-33.6,29.4-79.7,42-130.1,42c-8.4,0-16.8,0-25.2,0
	c46.2,29.4,100.7,46.2,155.3,46.2c188.9,0,289.6-155.3,289.6-289.6c0-4.2,0-8.4,0-12.6C9.6,421.3,26.4,404.5,39,383.5L39,383.5
	L39,383.5z"/>
</svg>
