<?xml version="1.0" encoding="utf-8"?>
<!-- Generator: Adobe Illustrator 19.1.0, SVG Export Plug-In . SVG Version: 6.00 Build 0)  -->
<svg version="1.1" id="Layer_1" xmlns="http://www.w3.org/2000/svg" xmlns:xlink="http://www.w3.org/1999/xlink" x="0px" y="0px"
	 viewBox="-473 287 512 512" style="enable-background:new -473 287 512 512;" xml:space="preserve">
<g>
	<path d="M-217,799c-55.5,0-110.9-12.8-145.1-17.1c-8.5,0-12.8-4.3-17.1-4.3c-21.3,0-42.7-17.1-42.7-38.4
		c0-128,89.6-290.1,204.8-290.1S-12.2,602.7-12.2,739.3c0,21.3-21.3,42.7-42.7,38.4c-4.3,0-8.5,0-17.1,4.3
		C-106.1,790.5-161.5,799-217,799z M-336.5,705.1c29.9,4.3,76.8,12.8,119.5,12.8s89.6-8.5,119.5-12.8
		c-12.8-85.3-72.5-166.4-119.5-166.4C-259.7,534.5-323.7,619.8-336.5,705.1z"/>
	<path d="M-217,534.5c-68.3,0-123.7-55.5-123.7-123.7S-285.3,287-217,287s123.7,55.5,123.7,123.7S-148.7,534.5-217,534.5z
		 M-217,372.3c-21.3,0-42.7,17.1-42.7,42.7s17.1,38.4,42.7,38.4s42.7-17.1,42.7-38.4S-195.7,372.3-217,372.3z"/>
</g>
</svg>
