<svg width="16" height="16" viewBox="0 0 16 16" xmlns="http://www.w3.org/2000/svg"><path d="M9.304 4.502l-.466.247-.17.473-.274.247h-.91l-.424.165-.022.33-.17.267-.04.288.083.247.107.247s.254.29 0 .494c0 0-.317 0-.38-.102-.064-.103-.53-.392-.615-.474-.085-.083-.36-.165-.36-.165l-.34-.123-.316-.02.02-.433-.02-.37-.127-.268-.36-.268-.022-.288.043-.16c.86-.83 2.04-1.343 3.345-1.343.737 0 1.425.177 2.047.468l-.014.11-.614.432zm1.637 7.105l-.175.102-.508.308-.3.218c-.222.106-.455.19-.695.262v-.295l-.085-.68s-.042-.39-.106-.493c-.062-.103-.21-.247-.36-.31-.147-.06-.253-.06-.338-.164-.084-.103-.148-.288-.254-.453-.106-.165-.233-.33-.233-.412v-.925l.106-.783.234-.165.275-.31.19-.06.656.123h.466l.19.39.446.352.275.432.36.124h.402l.275.33.17.35.063.246v.412l-.043.243c-.27.44-.61.827-1.01 1.157zM8 2C4.687 2 2 4.686 2 8c0 3.313 2.687 6 6 6 3.314 0 6-2.687 6-6 0-3.314-2.686-6-6-6zm0 14c-4.418 0-8-3.582-8-8s3.582-8 8-8c4.42 0 8 3.582 8 8s-3.58 8-8 8z" fill="#1291D4" fill-rule="evenodd"/></svg>