<?xml version="1.0" encoding="utf-8"?>
<!-- Generator: Adobe Illustrator 19.1.0, SVG Export Plug-In . SVG Version: 6.00 Build 0)  -->
<svg version="1.1" id="Layer_1" xmlns="http://www.w3.org/2000/svg" xmlns:xlink="http://www.w3.org/1999/xlink" x="0px" y="0px"
	 viewBox="-473 287 512 512" style="enable-background:new -473 287 512 512;" xml:space="preserve">
<path d="M-174.3,432.1l-17.1,8.5l-4.3,17.1l-8.5,4.3h-29.9l-12.8,4.3v8.5l-8.5,8.5v8.5l4.3,8.5l4.3,4.3c0,0,8.5,8.5,0,17.1
	c0,0-8.5,0-12.8-4.3c-4.3-4.3-17.1-12.8-21.3-17.1s-12.8-4.3-12.8-4.3l-8.5-4.3h-8.5V479v-12.8l-4.3-8.5l-12.8-8.5v-8.5v-8.5
	c29.9-25.6,64-42.7,106.7-42.7c21.3,0,46.9,8.5,64,17.1v4.3L-174.3,432.1L-174.3,432.1z M-123.1,658.2l-4.3,4.3l-17.1,8.5l-8.5,8.5
	c-4.3,4.3-17.1,4.3-21.3,8.5v-8.5l-4.3-21.3c0,0,0-12.8-4.3-17.1c-4.3-4.3-4.3-8.5-12.8-8.5c-4.3-4.3-8.5-4.3-8.5-8.5
	c-4.3-4.3-4.3-8.5-8.5-17.1c-4.3-8.5-8.5-8.5-8.5-12.8v-29.9l4.3-25.6l8.5-4.3l8.5-8.5l8.5-4.3l21.3,4.3h17.1l8.5,12.8l12.8,12.8
	l8.5,12.8l12.8,4.3h12.8l8.5,8.5l8.5,12.8l4.3,8.5v12.8v8.5C-97.5,636.9-110.3,649.7-123.1,658.2L-123.1,658.2z M-217,351
	c-106.7,0-192,85.3-192,192s85.3,192,192,192s192-85.3,192-192S-110.3,351-217,351z M-217,799c-140.8,0-256-115.2-256-256
	s115.2-256,256-256S39,402.2,39,543S-76.2,799-217,799z"/>
</svg>
